<?xml version="1.0" encoding="UTF-8"?>
<svg width="361px" height="361px" viewBox="0 0 361 361" version="1.1" xmlns="http://www.w3.org/2000/svg" xmlns:xlink="http://www.w3.org/1999/xlink">
    <!-- Generator: Sketch 52.6 (67491) - http://www.bohemiancoding.com/sketch -->
    <title>Education-Icon</title>
    <desc>Created with Sketch.</desc>
    <g id="Page-1" stroke="none" stroke-width="1" fill="none" fill-rule="evenodd">
        <g id="Icons" transform="translate(-1974.000000, -68.000000)">
            <g id="Education-Icon" transform="translate(1974.000000, 68.000000)">
                <circle id="Oval" fill="#FFFFFF" cx="180.5" cy="180.5" r="180.5"></circle>
                <g id="ceremony-hat" transform="translate(69.000000, 98.000000)">
                    <path d="M43,75 L179,75 L179,116.511981 C179,128.107831 172.092333,138.588949 161.436219,143.1618 L145,150.215064 C123.290583,159.531211 98.7094174,159.531211 77,150.215064 L60.5637811,143.1618 C49.9076667,138.588949 43,128.107831 43,116.511981 L43,75 Z" id="Rectangle" fill="#33598F"></path>
                    <path d="M123.581266,3.42189773 L220.299189,58.1009842 C222.222277,59.1881944 222.89989,61.6285236 221.81268,63.551612 C221.391996,64.2957296 220.743998,64.8855116 219.963681,65.2344973 L113.021775,113.062739 C103.432753,117.351293 92.349613,116.660626 83.3672097,111.214758 L2.07360985,61.9279294 C0.184544196,60.7826233 -0.418392059,58.322779 0.726914037,56.4337133 C1.09960411,55.818999 1.63106595,55.3160811 2.26539797,54.9778586 L99.5153894,3.12467693 C107.060338,-0.8982496 116.137973,-0.786138082 123.581266,3.42189773 Z" id="Rectangle" fill="#D8D8D8"></path>
                    <path d="M33.289524,154.333788 L38.5692388,118.993755 C34.5737031,116.388503 32.78328,112.905355 33.1979697,108.544309 C33.6126594,104.183263 36.1000946,100.765315 40.6602755,98.290466 L44.3501607,86.4898507 L108.997284,49.7700752 L113.35382,51.5 L50.5055331,90.0159986 L49.6897784,99.4640487 C53.6942978,102.228111 55.5037204,106.063616 55.1180462,110.970563 C54.732372,115.87751 52.9229494,118.811636 49.6897784,119.772942 L50.9812566,153.903188 C50.9945327,154.254033 50.8228385,154.586141 50.528907,154.778165 C47.4779,156.771375 44.6012676,157.82862 41.8990098,157.949899 C39.2240747,158.069953 36.4971244,157.189917 33.7181589,155.309792 L33.7181764,155.309766 C33.3993508,155.094063 33.2326463,154.714502 33.289524,154.333788 Z" id="Rectangle" fill="#D41818"></path>
                </g>
            </g>
        </g>
    </g>
</svg>