<?xml version="1.0" encoding="UTF-8"?>
<svg width="361px" height="361px" viewBox="0 0 361 361" version="1.1" xmlns="http://www.w3.org/2000/svg" xmlns:xlink="http://www.w3.org/1999/xlink">
    <!-- Generator: Sketch 52.6 (67491) - http://www.bohemiancoding.com/sketch -->
    <title>Employment-Icon</title>
    <desc>Created with Sketch.</desc>
    <g id="Page-1" stroke="none" stroke-width="1" fill="none" fill-rule="evenodd">
        <g id="Icons" transform="translate(-2450.000000, -68.000000)">
            <g id="Employment-Icon" transform="translate(2450.000000, 68.000000)">
                <circle id="Oval" fill="#FFFFFF" fill-rule="evenodd" cx="180.5" cy="180.5" r="180.5"></circle>
                <g id="Briefcase" transform="translate(92.000000, 110.000000)">
                    <path d="M22,11 L155,11 C167.150264,11 177,20.8497355 177,33 L177,120 C177,132.150264 167.150264,142 155,142 L22,142 C9.8497355,142 1.48797825e-15,132.150264 0,120 L0,33 C-1.48797825e-15,20.8497355 9.8497355,11 22,11 Z" id="Rectangle" fill="#000000" fill-rule="evenodd"></path>
                    <path d="M75,0 L102,0 C107.522847,-1.01453063e-15 112,4.4771525 112,10 L112,61 C112,66.5228475 107.522847,71 102,71 L75,71 C69.4771525,71 65,66.5228475 65,61 L65,10 C65,4.4771525 69.4771525,2.79088747e-15 75,0 Z" id="Rectangle" stroke="#000000" stroke-width="12"></path>
                    <path d="M44,48 L134,48 L134,128.516972 C134.182912,132.476581 134.856965,135.160453 136.02216,136.568588 C138.323748,139.35005 141.280472,141.160526 144.892331,142.000014 L58,142.000014 C50.2680135,142.000014 44,135.732 44,128.000014 L44,48 Z" id="Rectangle" fill="#FFFFFF" fill-rule="evenodd"></path>
                    <path d="M95.5,67 L120.5,67 C122.432997,67 124,68.5670034 124,70.5 C124,72.4329966 122.432997,74 120.5,74 L95.5,74 C93.5670034,74 92,72.4329966 92,70.5 C92,68.5670034 93.5670034,67 95.5,67 Z" id="Rectangle" fill="#BDBDBD" fill-rule="evenodd"></path>
                    <path d="M58.5,106 L120.5,106 C122.432997,106 124,107.567003 124,109.5 C124,111.432997 122.432997,113 120.5,113 L58.5,113 C56.5670034,113 55,111.432997 55,109.5 C55,107.567003 56.5670034,106 58.5,106 Z" id="Rectangle" fill="#BDBDBD" fill-rule="evenodd"></path>
                    <path d="M58.5,93 L120.5,93 C122.432997,93 124,94.5670034 124,96.5 C124,98.4329966 122.432997,100 120.5,100 L58.5,100 C56.5670034,100 55,98.4329966 55,96.5 C55,94.5670034 56.5670034,93 58.5,93 Z" id="Rectangle" fill="#BDBDBD" fill-rule="evenodd"></path>
                    <path d="M95.5,80 L120.5,80 C122.432997,80 124,81.5670034 124,83.5 C124,85.4329966 122.432997,87 120.5,87 L95.5,87 C93.5670034,87 92,85.4329966 92,83.5 C92,81.5670034 93.5670034,80 95.5,80 Z" id="Rectangle" fill="#BDBDBD" fill-rule="evenodd"></path>
                    <path d="M58.5,119 L120.5,119 C122.432997,119 124,120.567003 124,122.5 C124,124.432997 122.432997,126 120.5,126 L58.5,126 C56.5670034,126 55,124.432997 55,122.5 C55,120.567003 56.5670034,119 58.5,119 Z" id="Rectangle" fill="#BDBDBD" fill-rule="evenodd"></path>
                    <circle id="Oval" fill="#69A5D2" fill-rule="evenodd" cx="73" cy="73.8516176" r="5"></circle>
                    <path d="M73.3750549,87 C78.4583516,86.9401051 81,86.0730424 81,84.3988117 C81,81.8874657 77.418278,79.8516176 73,79.8516176 C68.581722,79.8516176 65,81.8874657 65,84.3988117 C65,86.0730424 67.791685,86.9401051 73.3750549,87 Z" id="Oval" fill="#69A5D2" fill-rule="evenodd"></path>
                </g>
            </g>
        </g>
    </g>
</svg>