<?xml version="1.0" encoding="UTF-8"?>
<svg width="240px" height="451px" viewBox="0 0 240 451" version="1.1" xmlns="http://www.w3.org/2000/svg" xmlns:xlink="http://www.w3.org/1999/xlink">
    <!-- Generator: Sketch 52.6 (67491) - http://www.bohemiancoding.com/sketch -->
    <title>Phone-Icon</title>
    <desc>Created with Sketch.</desc>
    <g id="Page-1" stroke="none" stroke-width="1" fill="none" fill-rule="evenodd">
        <g id="Icons" transform="translate(-589.000000, -620.000000)">
            <g id="Phone-Icon" transform="translate(589.000000, 620.000000)">
                <rect id="Rectangle" fill="#000000" x="0" y="0" width="240" height="451" rx="33"></rect>
                <path d="M30.3551158,10.8966696 L43.2921374,10.8966696 C47.4919831,10.8966696 51.2443075,13.5209192 52.6851952,17.4658586 L53.2674818,19.060074 C55.0580451,23.9623741 59.7209863,27.2234784 64.9400535,27.2234784 L169.91804,27.2234784 C175.592895,27.2234784 180.801027,24.0807067 183.446253,19.060074 L184.934514,16.2353582 C186.664435,12.9519738 190.070439,10.8966696 193.781671,10.8966696 L208.542392,10.8966696 C220.027195,10.8966696 229.337468,20.2069425 229.337468,31.6917461 L229.337468,416.407063 C229.337468,429.661897 218.592302,440.407063 205.337468,440.407063 L34.4244304,440.407063 C21.1695964,440.407063 10.4244304,429.661897 10.4244304,416.407063 L10.4244304,30.8273551 C10.4244304,19.8199414 19.3477022,10.8966696 30.3551158,10.8966696 Z" id="Rectangle" fill="#FFFFFF"></path>
            </g>
        </g>
    </g>
</svg>